<mxfile host="app.diagrams.net" agent="Mozilla/5.0 (Windows NT 10.0; Win64; x64) AppleWebKit/537.36 (KHTML, like Gecko) Chrome/133.0.0.0 Safari/537.36" version="26.0.16">
  <diagram name="Page-1" id="12e1b939-464a-85fe-373e-61e167be1490">
    <mxGraphModel dx="1764" dy="916" grid="1" gridSize="10" guides="1" tooltips="1" connect="1" arrows="1" fold="1" page="1" pageScale="1.5" pageWidth="1169" pageHeight="826" background="none" math="0" shadow="0">
      <root>
        <mxCell id="0" />
        <mxCell id="1" parent="0" />
        <mxCell id="60da8b9f42644d3a-2" value="&lt;span style=&quot;color: rgb(255, 255, 255); font-size: 27px; font-weight: 700;&quot;&gt;Backup Server&lt;/span&gt;" style="whiteSpace=wrap;html=1;rounded=1;shadow=0;strokeWidth=8;fontSize=20;align=center;fillColor=#FED217;strokeColor=#FFFFFF;" parent="1" vertex="1">
          <mxGeometry x="316" y="405" width="280" height="430" as="geometry" />
        </mxCell>
        <mxCell id="60da8b9f42644d3a-3" value="130.193.54.71&lt;div&gt;ru-central1-b&lt;/div&gt;" style="text;html=1;strokeColor=none;fillColor=none;align=center;verticalAlign=middle;whiteSpace=wrap;rounded=0;shadow=0;fontSize=27;fontColor=#FFFFFF;fontStyle=1" parent="1" vertex="1">
          <mxGeometry x="316" y="425" width="280" height="60" as="geometry" />
        </mxCell>
        <mxCell id="60da8b9f42644d3a-4" value="NODE EXPORTER&lt;div&gt;Yandex Monitoring&lt;/div&gt;" style="text;html=1;strokeColor=none;fillColor=none;align=center;verticalAlign=middle;whiteSpace=wrap;rounded=0;shadow=0;fontSize=14;fontColor=#FFFFFF;" parent="1" vertex="1">
          <mxGeometry x="316" y="725" width="280" height="90" as="geometry" />
        </mxCell>
        <mxCell id="60da8b9f42644d3a-6" value="" style="line;strokeWidth=2;html=1;rounded=0;shadow=0;fontSize=27;align=center;fillColor=none;strokeColor=#FFFFFF;" parent="1" vertex="1">
          <mxGeometry x="336" y="485" width="240" height="10" as="geometry" />
        </mxCell>
        <mxCell id="60da8b9f42644d3a-7" value="" style="line;strokeWidth=2;html=1;rounded=0;shadow=0;fontSize=27;align=center;fillColor=none;strokeColor=#FFFFFF;" parent="1" vertex="1">
          <mxGeometry x="336" y="705" width="240" height="10" as="geometry" />
        </mxCell>
        <mxCell id="60da8b9f42644d3a-17" value="&lt;span style=&quot;color: rgb(255, 255, 255); font-size: 27px; font-weight: 700;&quot;&gt;CA Server&lt;/span&gt;" style="whiteSpace=wrap;html=1;rounded=1;shadow=0;strokeWidth=8;fontSize=20;align=center;fillColor=#FFC001;strokeColor=#FFFFFF;" parent="1" vertex="1">
          <mxGeometry x="596" y="405" width="280" height="430" as="geometry" />
        </mxCell>
        <mxCell id="60da8b9f42644d3a-18" value="89.169.135.4&lt;div&gt;ru-central1-a&lt;/div&gt;" style="text;html=1;strokeColor=none;fillColor=none;align=center;verticalAlign=middle;whiteSpace=wrap;rounded=0;shadow=0;fontSize=27;fontColor=#FFFFFF;fontStyle=1" parent="1" vertex="1">
          <mxGeometry x="596" y="425" width="280" height="60" as="geometry" />
        </mxCell>
        <mxCell id="60da8b9f42644d3a-19" value="NODE EXPORTER&lt;div&gt;&lt;div&gt;SSL EXPORTER&lt;/div&gt;&lt;/div&gt;" style="text;html=1;strokeColor=none;fillColor=none;align=center;verticalAlign=middle;whiteSpace=wrap;rounded=0;shadow=0;fontSize=14;fontColor=#FFFFFF;" parent="1" vertex="1">
          <mxGeometry x="596" y="725" width="280" height="90" as="geometry" />
        </mxCell>
        <mxCell id="60da8b9f42644d3a-20" value="" style="line;strokeWidth=2;html=1;rounded=0;shadow=0;fontSize=27;align=center;fillColor=none;strokeColor=#FFFFFF;" parent="1" vertex="1">
          <mxGeometry x="616" y="485" width="240" height="10" as="geometry" />
        </mxCell>
        <mxCell id="60da8b9f42644d3a-21" value="" style="line;strokeWidth=2;html=1;rounded=0;shadow=0;fontSize=27;align=center;fillColor=none;strokeColor=#FFFFFF;" parent="1" vertex="1">
          <mxGeometry x="616" y="705" width="240" height="10" as="geometry" />
        </mxCell>
        <mxCell id="60da8b9f42644d3a-24" value="&lt;span style=&quot;color: rgb(255, 255, 255); font-size: 27px; font-weight: 700;&quot;&gt;OpenVPN Server&lt;/span&gt;" style="whiteSpace=wrap;html=1;rounded=1;shadow=0;strokeWidth=8;fontSize=20;align=center;fillColor=#FFB001;strokeColor=#FFFFFF;" parent="1" vertex="1">
          <mxGeometry x="876" y="405" width="280" height="430" as="geometry" />
        </mxCell>
        <mxCell id="60da8b9f42644d3a-25" value="89.169.159.157&lt;div&gt;ru-central1-a&lt;/div&gt;" style="text;html=1;strokeColor=none;fillColor=none;align=center;verticalAlign=middle;whiteSpace=wrap;rounded=0;shadow=0;fontSize=27;fontColor=#FFFFFF;fontStyle=1" parent="1" vertex="1">
          <mxGeometry x="876" y="425" width="280" height="60" as="geometry" />
        </mxCell>
        <mxCell id="60da8b9f42644d3a-26" value="NODE EXPORTER&lt;div&gt;&lt;div&gt;OPENVPN EXPORTER&lt;/div&gt;&lt;/div&gt;" style="text;html=1;strokeColor=none;fillColor=none;align=center;verticalAlign=middle;whiteSpace=wrap;rounded=0;shadow=0;fontSize=14;fontColor=#FFFFFF;" parent="1" vertex="1">
          <mxGeometry x="876" y="725" width="280" height="90" as="geometry" />
        </mxCell>
        <mxCell id="60da8b9f42644d3a-27" value="" style="line;strokeWidth=2;html=1;rounded=0;shadow=0;fontSize=27;align=center;fillColor=none;strokeColor=#FFFFFF;" parent="1" vertex="1">
          <mxGeometry x="896" y="485" width="240" height="10" as="geometry" />
        </mxCell>
        <mxCell id="60da8b9f42644d3a-28" value="" style="line;strokeWidth=2;html=1;rounded=0;shadow=0;fontSize=27;align=center;fillColor=none;strokeColor=#FFFFFF;" parent="1" vertex="1">
          <mxGeometry x="896" y="705" width="240" height="10" as="geometry" />
        </mxCell>
        <mxCell id="60da8b9f42644d3a-30" value="" style="html=1;shadow=0;dashed=0;align=center;verticalAlign=middle;shape=mxgraph.arrows2.stylisedArrow;dy=0.6;dx=40;notch=15;feather=0.4;rounded=0;strokeWidth=1;fontSize=27;strokeColor=none;fillColor=#fff2cc;rotation=-180;" parent="1" vertex="1">
          <mxGeometry x="817" y="638" width="100" height="60" as="geometry" />
        </mxCell>
        <mxCell id="60da8b9f42644d3a-31" value="&lt;span style=&quot;color: rgb(255, 255, 255); font-size: 27px; font-weight: 700;&quot;&gt;Prometheus Server&lt;/span&gt;&lt;div&gt;&lt;span style=&quot;color: rgb(255, 255, 255);&quot;&gt;&lt;font color=&quot;#ffffff&quot;&gt;&lt;span style=&quot;font-size: 27px;&quot;&gt;&lt;b&gt;raif.hopto.org&lt;/b&gt;&lt;/span&gt;&lt;/font&gt;&lt;/span&gt;&lt;/div&gt;" style="whiteSpace=wrap;html=1;rounded=1;shadow=0;strokeWidth=8;fontSize=20;align=center;fillColor=#FE9900;strokeColor=#FFFFFF;" parent="1" vertex="1">
          <mxGeometry x="1156" y="405" width="280" height="430" as="geometry" />
        </mxCell>
        <mxCell id="60da8b9f42644d3a-32" value="89.169.154.113&lt;div&gt;ru-central1-a&lt;/div&gt;" style="text;html=1;strokeColor=none;fillColor=none;align=center;verticalAlign=middle;whiteSpace=wrap;rounded=0;shadow=0;fontSize=27;fontColor=#FFFFFF;fontStyle=1" parent="1" vertex="1">
          <mxGeometry x="1156" y="425" width="280" height="60" as="geometry" />
        </mxCell>
        <mxCell id="60da8b9f42644d3a-33" value="NODE EXPORTER&lt;div&gt;PROMETHEUS EXPORTER&lt;/div&gt;&lt;div&gt;ALERTMANAGER&lt;/div&gt;" style="text;html=1;strokeColor=none;fillColor=none;align=center;verticalAlign=middle;whiteSpace=wrap;rounded=0;shadow=0;fontSize=14;fontColor=#FFFFFF;" parent="1" vertex="1">
          <mxGeometry x="1156" y="725" width="280" height="90" as="geometry" />
        </mxCell>
        <mxCell id="60da8b9f42644d3a-34" value="" style="line;strokeWidth=2;html=1;rounded=0;shadow=0;fontSize=27;align=center;fillColor=none;strokeColor=#FFFFFF;" parent="1" vertex="1">
          <mxGeometry x="1176" y="485" width="240" height="10" as="geometry" />
        </mxCell>
        <mxCell id="60da8b9f42644d3a-35" value="" style="line;strokeWidth=2;html=1;rounded=0;shadow=0;fontSize=27;align=center;fillColor=none;strokeColor=#FFFFFF;" parent="1" vertex="1">
          <mxGeometry x="1176" y="705" width="240" height="10" as="geometry" />
        </mxCell>
        <mxCell id="60da8b9f42644d3a-37" value="" style="html=1;shadow=0;dashed=0;align=center;verticalAlign=middle;shape=mxgraph.arrows2.stylisedArrow;dy=0.6;dx=40;notch=15;feather=0.4;rounded=0;strokeWidth=1;fontSize=27;strokeColor=none;fillColor=#fff2cc;" parent="1" vertex="1">
          <mxGeometry x="833.75" y="535" width="100" height="60" as="geometry" />
        </mxCell>
        <mxCell id="TWnDSq0pQ0x6KAUcjfAo-7" value="" style="group" vertex="1" connectable="0" parent="1">
          <mxGeometry x="98" y="560" width="210" height="140" as="geometry" />
        </mxCell>
        <mxCell id="TWnDSq0pQ0x6KAUcjfAo-1" value="" style="ellipse;shape=cloud;whiteSpace=wrap;html=1;fillColor=light-dark(#ffc001, #ededed);strokeWidth=0;" vertex="1" parent="TWnDSq0pQ0x6KAUcjfAo-7">
          <mxGeometry x="9" y="-13" width="210" height="140" as="geometry" />
        </mxCell>
        <mxCell id="TWnDSq0pQ0x6KAUcjfAo-3" value="Cloud Backup" style="text;html=1;align=center;verticalAlign=middle;whiteSpace=wrap;rounded=0;fontSize=24;fontStyle=1;fontColor=light-dark(#ffffff, #ededed);" vertex="1" parent="TWnDSq0pQ0x6KAUcjfAo-7">
          <mxGeometry x="81" y="45" width="60" height="30" as="geometry" />
        </mxCell>
        <mxCell id="TWnDSq0pQ0x6KAUcjfAo-6" value="" style="html=1;shadow=0;dashed=0;align=center;verticalAlign=middle;shape=mxgraph.arrows2.stylisedArrow;dy=0.6;dx=40;notch=15;feather=0.4;rounded=0;strokeWidth=1;fontSize=27;strokeColor=none;fillColor=#fff2cc;rotation=-180;" vertex="1" parent="1">
          <mxGeometry x="249" y="590" width="100" height="60" as="geometry" />
        </mxCell>
        <mxCell id="TWnDSq0pQ0x6KAUcjfAo-8" value="" style="outlineConnect=0;dashed=0;verticalLabelPosition=bottom;verticalAlign=top;align=center;html=1;shape=mxgraph.aws3.email;fillColor=light-dark(#fe9900, #835801);gradientColor=none;" vertex="1" parent="1">
          <mxGeometry x="1222" y="845" width="130" height="101.5" as="geometry" />
        </mxCell>
      </root>
    </mxGraphModel>
  </diagram>
</mxfile>
